<?xml version="1.0" standalone="no"?>
<!DOCTYPE svg PUBLIC "-//W3C//DTD SVG 20010904//EN"
 "http://www.w3.org/TR/2001/REC-SVG-20010904/DTD/svg10.dtd">
<svg version="1.0" xmlns="http://www.w3.org/2000/svg"
 width="512.000000pt" height="512.000000pt" viewBox="0 0 512.000000 512.000000"
 preserveAspectRatio="xMidYMid meet">

<g transform="translate(0.000000,512.000000) scale(0.100000,-0.100000)"
fill="currentColor" stroke="none">
<path d="M2365 4610 c-393 -62 -683 -357 -851 -867 -81 -248 -101 -480 -55
-653 28 -107 86 -232 154 -332 l52 -78 823 0 823 0 -12 22 c-13 24 -170 183
-435 438 -188 183 -213 218 -191 272 41 96 113 99 342 13 134 -51 360 -152
563 -252 95 -47 174 -84 176 -82 2 2 85 166 186 364 100 198 202 397 226 442
24 45 44 84 44 87 0 2 -44 31 -97 64 -450 274 -885 459 -1278 542 -114 24
-371 35 -470 20z"/>
<path d="M1878 2423 c17 -21 153 -159 302 -308 149 -148 278 -282 286 -297 33
-63 2 -139 -66 -159 -34 -10 -52 -9 -124 8 -181 45 -548 208 -874 387 -68 38
-127 64 -132 60 -17 -19 -450 -867 -450 -881 0 -15 196 -144 380 -250 359
-206 727 -358 1035 -426 115 -26 283 -40 395 -34 466 27 822 350 1005 913 80
244 99 470 56 639 -24 92 -92 238 -151 325 l-41 60 -825 0 -826 0 30 -37z"/>
</g>
</svg>
